# Blender 4.3.2
# www.blender.org
mtllib box.mtl
o box_body
v -1.223886 -0.741055 0.542893
v -1.223886 0.889162 0.518551
v 1.223886 -0.741055 0.542893
v 1.223886 0.889162 0.518551
v 1.223886 -0.741055 -0.542893
v 1.223886 0.889162 -0.542893
v -1.223886 -0.741055 -0.542893
v -1.223886 0.889162 -0.542893
v -1.017676 0.783408 0.486370
v 1.017676 0.783408 0.486370
v -1.017676 0.399054 0.452743
v 1.017676 0.399054 0.452743
v 1.213447 0.769852 0.415711
v 1.213447 0.769852 -0.302371
v -1.213447 0.769852 -0.302371
v -1.213447 0.769852 0.415711
v 1.199840 0.614320 0.415711
v 1.199840 0.614320 -0.302371
v -1.199840 0.614320 -0.302371
v -1.199840 0.614320 0.415711
v 1.150090 0.831704 -0.537866
v -1.150090 0.831704 -0.537866
v 1.150090 0.613890 -0.518810
v -1.150090 0.613890 -0.518810
v -1.223886 0.647846 0.542893
v -1.223886 0.647846 -0.542893
v 1.223886 0.647846 -0.542893
v 1.223886 0.647846 0.542893
v 1.223886 0.647846 0.542893
v 1.223886 0.647846 -0.542893
v -1.223886 0.647846 -0.542893
v -1.223886 0.647846 0.542893
v -1.223886 -0.741055 -0.542893
v -1.223886 -0.741055 0.542893
v 1.223886 -0.741055 0.542893
v -1.017676 0.783408 0.486370
v 1.213447 0.769852 0.415711
v -1.213447 0.769852 -0.302371
v 1.150090 0.831704 -0.537866
v -1.223886 0.647846 -0.542893
v -1.223886 0.889162 -0.542893
v -1.223886 0.889162 0.518551
v 1.223886 0.647846 -0.542893
v 1.223886 0.889162 -0.542893
v -1.223886 0.889162 -0.542893
v 1.223886 0.647846 0.542893
v 1.223886 0.889162 0.518551
v 1.223886 0.889162 -0.542893
v -1.223886 0.647846 0.542893
v -1.223886 0.889162 0.518551
v 1.223886 0.889162 0.518551
v -1.223886 -0.741055 0.542893
v 1.223886 0.647846 0.542893
v 1.223886 -0.741055 0.542893
v 1.223886 -0.741055 0.542893
v 1.223886 0.647846 -0.542893
v 1.223886 -0.741055 -0.542893
v 1.223886 -0.741055 -0.542893
v -1.223886 0.647846 -0.542893
v -1.223886 -0.741055 -0.542893
v -1.223886 -0.741055 -0.542893
v -1.223886 0.647846 0.542893
v -1.223886 -0.741055 0.542893
v -1.223886 -0.741055 -0.542893
v 1.223886 -0.741055 0.542893
v 1.223886 -0.741055 -0.542893
v -1.223886 0.889162 0.518551
v 1.017676 0.783408 0.486370
v 1.223886 0.889162 0.518551
v -1.017676 0.783408 0.486370
v 1.017676 0.399054 0.452743
v 1.017676 0.783408 0.486370
v 1.223886 0.889162 0.518551
v 1.213447 0.769852 -0.302371
v 1.223886 0.889162 -0.542893
v -1.223886 0.889162 -0.542893
v -1.213447 0.769852 0.415711
v -1.223886 0.889162 0.518551
v 1.213447 0.769852 0.415711
v 1.199840 0.614320 -0.302371
v 1.213447 0.769852 -0.302371
v -1.213447 0.769852 -0.302371
v -1.199840 0.614320 0.415711
v -1.213447 0.769852 0.415711
v 1.223886 0.889162 -0.542893
v -1.150090 0.831704 -0.537866
v -1.223886 0.889162 -0.542893
v 1.150090 0.831704 -0.537866
v -1.150090 0.613890 -0.518810
v -1.150090 0.831704 -0.537866
v -1.223886 0.647846 -0.542893
v -1.223886 0.889162 0.518551
v -1.223886 0.647846 0.542893
v 1.223886 0.647846 -0.542893
v -1.223886 0.889162 -0.542893
v -1.223886 0.647846 -0.542893
v 1.223886 0.647846 0.542893
v 1.223886 0.889162 -0.542893
v 1.223886 0.647846 -0.542893
v -1.223886 0.647846 0.542893
v 1.223886 0.889162 0.518551
v 1.223886 0.647846 0.542893
vn -0.0000 0.0335 0.9994
vn -0.0000 0.1004 0.9950
vn -0.0000 0.0670 0.9978
vn 1.0000 -0.0000 -0.0000
vn -0.0000 -0.0000 -1.0000
vn -1.0000 -0.0000 -0.0000
vn -0.0000 0.0872 0.9962
vn 0.9962 0.0872 -0.0000
vn -0.9962 0.0872 -0.0000
vn -0.0000 0.2242 -0.9745
vn -0.0000 0.0872 -0.9962
vn -0.0000 0.1559 -0.9878
vn -0.0000 0.2911 -0.9567
vn -0.0000 -1.0000 -0.0000
vn -0.0000 -0.0000 1.0000
vt 0.500610 0.626138
vt 0.500610 0.659098
vt 0.166287 0.626138
vt 0.648910 0.626138
vt 0.648910 0.659098
vt 0.983233 0.626138
vt 0.983233 0.659098
vt 0.166287 0.659097
vt 0.017988 0.626138
vt 0.973153 0.666975
vt 0.973153 0.696838
vt 0.658989 0.666975
vt 0.148916 0.675455
vt 0.148916 0.696779
vt 0.050839 0.675455
vt 0.616059 0.675456
vt 0.616059 0.696780
vt 0.517981 0.675456
vt 0.017988 0.659097
vt 0.472445 0.673597
vt 0.472445 0.726294
vt 0.194452 0.673597
vt 0.500610 0.288139
vt 0.500610 0.436438
vt 0.166287 0.288139
vt 0.166287 0.436438
vt 0.017988 0.436438
vt 0.983233 0.436438
vt 0.648910 0.436438
vt 0.658989 0.696839
vt 0.050839 0.696780
vt 0.517981 0.696780
vt 0.194452 0.726293
s 1
usemtl body.001
f 102/1/1 101/2/2 100/3/3
s 0
f 99/4/4 98/5/4 97/1/4
f 96/6/5 95/7/5 94/4/5
f 93/3/6 92/8/6 91/9/6
f 90/10/7 89/11/7 88/12/7
f 87/7/7 86/10/7 85/5/7
f 84/13/8 83/14/8 82/15/8
f 81/16/9 80/17/9 79/18/9
f 78/8/8 77/13/8 76/19/8
f 75/5/9 74/16/9 73/2/9
s 1
f 72/20/10 71/21/11 70/22/12
f 69/2/13 68/20/10 67/8/13
s 0
f 66/23/14 65/24/14 64/25/14
f 63/26/6 62/3/6 61/27/6
f 60/28/5 59/6/5 58/29/5
f 57/29/4 56/4/4 55/24/4
s 1
f 54/24/15 53/1/1 52/26/15
f 51/2/2 50/8/2 49/3/3
s 0
f 48/5/4 47/2/4 46/1/4
f 45/7/5 44/5/5 43/4/5
f 42/8/6 41/19/6 40/9/6
f 24/11/7 23/30/7 39/12/7
f 22/10/7 21/12/7 6/5/7
f 20/14/8 19/31/8 38/15/8
f 18/17/9 17/32/9 37/18/9
f 16/13/8 15/15/8 8/19/8
f 14/16/9 13/18/9 4/2/9
s 1
f 12/21/11 11/33/11 36/22/12
f 10/20/10 9/22/12 2/8/13
s 0
f 35/24/14 34/26/14 33/25/14
f 32/3/6 31/9/6 7/27/6
f 26/6/5 30/4/5 5/29/5
f 27/4/4 29/1/4 3/24/4
s 1
f 28/1/1 25/3/3 1/26/15
o box_body_errece_
v -1.236125 0.647846 0.548322
v 1.236125 0.647846 0.548322
v -1.236125 0.543178 0.548322
v 1.236125 0.543178 0.548322
v 1.090698 0.543178 0.548322
v 0.945272 0.543178 0.548322
v 0.799845 0.543178 0.548322
v 0.654419 0.543178 0.548322
v 0.508992 0.543178 0.548322
v 0.363566 0.543178 0.548322
v 0.218140 0.543178 0.548322
v 0.072713 0.543178 0.548322
v -0.072713 0.543178 0.548322
v -0.218140 0.543178 0.548322
v -0.363566 0.543178 0.548322
v -0.508992 0.543178 0.548322
v -0.654419 0.543178 0.548322
v -0.799845 0.543178 0.548322
v -0.945272 0.543178 0.548322
v -1.090698 0.543178 0.548322
v -1.090698 0.647846 0.548322
v -0.945272 0.647846 0.548322
v -0.799845 0.647846 0.548322
v -0.654419 0.647846 0.548322
v -0.508992 0.647846 0.548322
v -0.363566 0.647846 0.548322
v -0.218140 0.647846 0.548322
v -0.072713 0.647846 0.548322
v 0.072713 0.647846 0.548322
v 0.218140 0.647846 0.548322
v 0.363566 0.647846 0.548322
v 0.508992 0.647846 0.548322
v 0.654419 0.647846 0.548322
v 0.799845 0.647846 0.548322
v 0.945272 0.647846 0.548322
v 1.090698 0.647846 0.548322
v 1.090698 0.647846 0.548322
v 0.945272 0.647846 0.548322
v 0.799845 0.647846 0.548322
v 0.654419 0.647846 0.548322
v 0.508992 0.647846 0.548322
v 0.363566 0.647846 0.548322
v 0.218140 0.647846 0.548322
v 0.072713 0.647846 0.548322
v -0.072713 0.647846 0.548322
v -0.218140 0.647846 0.548322
v -0.363566 0.647846 0.548322
v -0.508992 0.647846 0.548322
v -0.654419 0.647846 0.548322
v -0.799845 0.647846 0.548322
v -1.090698 0.647846 0.548322
v -0.945272 0.647846 0.548322
v -1.236125 0.543178 0.548322
v -1.090698 0.647846 0.548322
v 1.090698 0.647846 0.548322
v 1.236125 0.543178 0.548322
v 1.090698 0.543178 0.548322
v 0.945272 0.647846 0.548322
v 1.090698 0.543178 0.548322
v 0.945272 0.543178 0.548322
v 0.799845 0.647846 0.548322
v 0.945272 0.543178 0.548322
v 0.799845 0.543178 0.548322
v 0.654419 0.647846 0.548322
v 0.799845 0.543178 0.548322
v 0.654419 0.543178 0.548322
v 0.508992 0.647846 0.548322
v 0.654419 0.543178 0.548322
v 0.508992 0.543178 0.548322
v 0.363566 0.647846 0.548322
v 0.508992 0.543178 0.548322
v 0.363566 0.543178 0.548322
v 0.218140 0.647846 0.548322
v 0.363566 0.543178 0.548322
v 0.218140 0.543178 0.548322
v 0.072713 0.647846 0.548322
v 0.218140 0.543178 0.548322
v 0.072713 0.543178 0.548322
v -0.072713 0.647846 0.548322
v 0.072713 0.543178 0.548322
v -0.072713 0.543178 0.548322
v -0.218140 0.647846 0.548322
v -0.072713 0.543178 0.548322
v -0.218140 0.543178 0.548322
v -0.363566 0.647846 0.548322
v -0.218140 0.543178 0.548322
v -0.363566 0.543178 0.548322
v -0.508992 0.647846 0.548322
v -0.363566 0.543178 0.548322
v -0.508992 0.543178 0.548322
v -0.654419 0.647846 0.548322
v -0.508992 0.543178 0.548322
v -0.654419 0.543178 0.548322
v -0.799845 0.647846 0.548322
v -0.654419 0.543178 0.548322
v -0.799845 0.543178 0.548322
v -0.945272 0.647846 0.548322
v -0.799845 0.543178 0.548322
v -0.945272 0.543178 0.548322
v -1.090698 0.647846 0.548322
v -0.945272 0.543178 0.548322
v -1.090698 0.543178 0.548322
vn 0.1417 -0.0000 0.9899
vn -0.1222 -0.0000 0.9925
vn 0.1222 0.0718 0.9899
vn 0.2444 -0.0000 0.9697
vn 0.1054 0.0619 0.9925
vn 0.2445 -0.0000 0.9697
vn -0.1223 -0.0000 0.9925
vn -0.1221 -0.0000 0.9925
vn 0.1053 0.0618 0.9925
vn -0.0000 -0.0000 1.0000
vn -0.1416 -0.0000 0.9899
vn -0.1408 0.0151 0.9899
vn -0.1054 -0.0619 0.9925
vn -0.2444 -0.0000 0.9697
vn 0.1222 -0.0000 0.9925
vn -0.2445 -0.0000 0.9696
vn -0.2445 -0.0000 0.9697
vn 0.1223 -0.0000 0.9925
vn -0.1053 -0.0618 0.9925
vt 0.136682 0.429479
vt 0.185097 0.429479
vt 0.136682 0.464324
vt 0.233512 0.429479
vt 0.185097 0.464324
vt 0.281926 0.429479
vt 0.233512 0.464324
vt 0.330341 0.429479
vt 0.281926 0.464324
vt 0.378755 0.429479
vt 0.330341 0.464324
vt 0.427170 0.429479
vt 0.378755 0.464324
vt 0.475585 0.429479
vt 0.427170 0.464324
vt 0.523999 0.429479
vt 0.475585 0.464324
vt 0.572414 0.429479
vt 0.523999 0.464324
vt 0.620829 0.429479
vt 0.572414 0.464324
vt 0.669243 0.429479
vt 0.620829 0.464324
vt 0.717658 0.429479
vt 0.669243 0.464324
vt 0.766072 0.429479
vt 0.717658 0.464324
vt 0.814487 0.429479
vt 0.766072 0.464324
vt 0.862902 0.429479
vt 0.814487 0.464324
vt 0.911316 0.429479
vt 0.862902 0.464324
vt 0.088268 0.429479
vt 0.911316 0.464324
vt 0.088268 0.464324
s 1
usemtl top.001
f 204/34/16 203/35/17 202/36/18
f 201/35/19 200/37/17 199/38/20
f 198/37/21 197/39/17 196/40/20
f 195/39/19 194/41/17 193/42/20
f 192/41/19 191/43/17 190/44/20
f 189/43/19 188/45/17 187/46/20
f 186/45/19 185/47/22 184/48/20
f 183/47/19 182/49/17 181/50/20
f 180/49/21 179/51/23 178/52/20
f 177/51/21 176/53/17 175/54/24
f 174/53/19 173/55/22 172/56/20
f 171/55/21 170/57/17 169/58/20
f 168/57/21 167/59/17 166/60/20
f 165/59/19 164/61/17 163/62/20
f 162/61/19 161/63/17 160/64/20
f 159/63/19 158/65/25 157/66/20
f 122/34/26 156/36/27 155/67/25
f 121/35/28 154/38/29 153/36/16
f 120/37/28 152/40/29 124/38/30
f 119/39/28 151/42/31 125/40/30
f 118/41/28 150/44/29 126/42/30
f 117/43/28 149/46/29 127/44/30
f 116/45/28 148/48/32 128/46/33
f 115/47/28 147/50/32 129/48/30
f 114/49/28 146/52/31 130/50/30
f 113/51/34 145/54/29 131/52/30
f 112/53/28 144/56/29 132/54/30
f 111/55/28 143/58/32 133/56/30
f 110/57/34 142/60/29 134/58/30
f 109/59/28 141/62/32 135/60/30
f 108/61/28 140/64/29 136/62/30
f 107/63/28 139/66/32 137/64/30
f 106/65/25 104/68/25 138/66/30
f 123/36/26 103/69/25 105/67/25
o box_body_stick
v -1.186680 0.435019 0.548322
v 1.186680 0.435019 0.548322
v 1.186680 0.543178 0.548322
v -1.186680 0.543178 0.548322
v -1.186680 0.435019 0.531255
v 1.186680 0.435019 0.531255
v 1.186680 0.543178 0.531255
v -1.186680 0.543178 0.531255
v -1.186680 0.543178 0.531255
v 1.186680 0.543178 0.531255
v 1.186680 0.543178 0.548322
v 1.186680 0.435019 0.531255
v 1.186680 0.435019 0.548322
v -1.186680 0.435019 0.548322
v -1.186680 0.543178 0.548322
v -1.186680 0.543178 0.531255
v 1.186680 0.435019 0.531255
v -1.186680 0.435019 0.531255
v -1.186680 0.543178 0.531255
v 1.186680 0.543178 0.548322
v 1.186680 0.543178 0.531255
v 1.186680 0.543178 0.531255
v 1.186680 0.435019 0.548322
v 1.186680 0.435019 0.531255
v 1.186680 0.435019 0.531255
v -1.186680 0.435019 0.548322
v -1.186680 0.435019 0.531255
v -1.186680 0.435019 0.531255
v -1.186680 0.543178 0.548322
v -1.186680 0.543178 0.531255
vn 1.0000 -0.0000 -0.0000
vn -0.0000 1.0000 -0.0000
vn -1.0000 -0.0000 -0.0000
vn -0.0000 -1.0000 -0.0000
vn -0.0000 -0.0000 1.0000
vt 0.104729 0.429479
vt 0.104729 0.393471
vt 0.894855 0.393471
vt 0.894855 0.429479
s 0
usemtl top.001
f 234/70/35 233/70/35 232/71/35
f 231/71/36 230/71/36 229/72/36
f 228/72/37 227/72/37 226/73/37
f 225/73/38 224/73/38 223/70/38
f 222/71/39 221/72/39 220/70/39
f 219/70/35 218/71/35 209/71/35
f 205/71/36 217/72/36 216/72/36
f 206/72/37 215/73/37 214/73/37
f 207/73/38 208/70/38 213/70/38
f 210/72/39 211/73/39 212/70/39
o box_top
v 1.236125 0.647846 -0.548322
v -1.236125 0.893704 0.548322
v -1.236125 0.647846 -0.548322
v 1.236125 0.893704 0.548322
v -1.236125 0.647846 0.548322
v 1.236125 0.893704 -0.548322
v 1.236125 0.647846 0.548322
v -1.236125 0.893704 -0.548322
v 1.236125 0.893704 0.548322
v 1.236125 0.893704 -0.548322
v -1.236125 0.893704 -0.548322
v -1.236125 0.893704 -0.548322
v -1.236125 0.893704 0.548322
v 1.236125 0.893704 0.548322
v 1.236125 0.893704 -0.548322
v -1.236125 0.893704 -0.548322
v 1.236125 0.893704 0.548322
v -1.236125 0.893704 0.548322
v -1.236125 0.647846 0.548322
v 1.236125 0.893704 0.548322
v 1.236125 0.647846 0.548322
v 1.236125 0.647846 -0.548322
v -1.236125 0.893704 -0.548322
v -1.236125 0.647846 -0.548322
v -1.236125 0.647846 -0.548322
v -1.236125 0.893704 0.548322
v -1.236125 0.647846 0.548322
v 1.236125 0.647846 0.548322
v 1.236125 0.893704 -0.548322
v 1.236125 0.647846 -0.548322
vn 1.0000 -0.0000 -0.0000
vn -1.0000 -0.0000 -0.0000
vn -0.0000 -0.0000 -1.0000
vn -0.0000 -0.0000 1.0000
vn -0.0000 1.0000 -0.0000
vt 0.993166 0.911263
vt 0.911316 0.911263
vt 0.993166 0.546174
vt 0.006418 0.546174
vt 0.088268 0.546174
vt 0.006418 0.911263
vt 0.088268 0.993113
vt 0.088268 0.911263
vt 0.911316 0.993112
vt 0.911316 0.464324
vt 0.911316 0.546174
vt 0.088268 0.464324
s 0
usemtl top.001
f 264/74/40 263/75/40 262/76/40
f 261/77/41 260/78/41 259/79/41
f 258/80/42 257/81/42 256/82/42
f 255/83/43 254/84/43 253/85/43
f 252/78/44 251/84/44 250/81/44
f 249/75/40 248/84/40 241/76/40
f 247/78/41 246/81/41 237/79/41
f 245/81/42 244/75/42 235/82/42
f 243/84/43 236/78/43 239/85/43
f 238/84/44 240/75/44 242/81/44
